<svg width="264" height="60" viewBox="0 0 264 60" fill="none" xmlns="http://www.w3.org/2000/svg">
<rect x="0.5" y="0.5" width="59" height="59" rx="13.5" fill="white" stroke="black"/>
<path fill-rule="evenodd" clip-rule="evenodd" d="M19.469 32.0371L28.612 35.47C29.324 35.7374 30.1091 35.7359 30.8201 35.4658L39.7507 32.0736L39.7506 38.5968C39.7507 38.6029 39.7508 38.6091 39.7508 38.6152C39.7508 40.625 35.2105 42.2541 29.6099 42.2541C24.0092 42.2541 19.469 40.625 19.469 38.6152C19.469 38.6132 19.469 38.6111 19.469 38.6091C19.469 38.605 19.469 38.6009 19.469 38.5968V32.0371Z" fill="black"/>
<path d="M47.9942 36.9396C48.2993 36.3795 48.6442 35.6518 48.9364 35.0049C49.1637 34.5012 49.811 34.3903 50.0891 34.8676C50.577 35.7035 50.8985 36.7008 51.0583 37.3653C51.1091 37.5764 51.0645 37.8053 50.902 37.9495C50.2141 38.5614 49.1516 38.3974 48.3266 38.0846C47.8841 37.9168 47.7676 37.3552 47.9942 36.9396Z" fill="white"/>
<path fill-rule="evenodd" clip-rule="evenodd" d="M49.5468 34.9554C49.4597 34.9673 49.3527 35.0317 49.2921 35.1656C48.9988 35.8155 48.6492 36.5535 48.3371 37.1264C48.271 37.2477 48.2566 37.3896 48.2871 37.5056C48.3164 37.6164 48.3796 37.6869 48.4652 37.7193C48.8511 37.8657 49.2753 37.9701 49.6687 37.9732C50.0593 37.9763 50.3921 37.8804 50.6425 37.6576C50.6707 37.6327 50.7046 37.5659 50.6785 37.4568C50.5234 36.8132 50.2132 35.8557 49.7519 35.0645C49.696 34.9686 49.6222 34.945 49.5468 34.9554ZM49.4402 34.1814C49.8148 34.1298 50.2043 34.2893 50.4265 34.6708L50.089 34.8676L49.4402 34.1814ZM49.4402 34.1814C49.0773 34.2315 48.7472 34.4745 48.58 34.8442L49.4402 34.1814ZM50.4265 34.6708C50.9402 35.5512 51.273 36.5883 51.4378 37.2739C51.5132 37.5869 51.4582 37.9778 51.1617 38.2414C50.7242 38.6305 50.1812 38.7586 49.6625 38.7544C49.1464 38.7503 48.6269 38.6162 48.1878 38.4498C47.455 38.1718 47.35 37.3057 47.6507 36.7528C47.9492 36.2054 48.2894 35.4882 48.58 34.8442" fill="black"/>
<path fill-rule="evenodd" clip-rule="evenodd" d="M48.8485 33.9723C49.0153 33.8357 49.2614 33.8603 49.3981 34.0273C49.5321 34.191 49.6009 34.4316 49.6442 34.6319C49.6915 34.8527 49.7243 35.1109 49.747 35.3705C49.7923 35.891 49.8001 36.4543 49.7935 36.8158C49.7896 37.0315 49.6114 37.2032 49.3958 37.1993C49.1802 37.1954 49.0083 37.0173 49.0126 36.8016C49.0185 36.4593 49.011 35.9245 48.9688 35.4383C48.9474 35.1946 48.9185 34.9724 48.8806 34.7964C48.8614 34.7085 48.8419 34.6389 48.8228 34.5874C48.8048 34.5388 48.7927 34.5212 48.7927 34.5211C48.7927 34.521 48.7931 34.5214 48.7935 34.522C48.6567 34.355 48.6813 34.1089 48.8485 33.9723Z" fill="black"/>
<path fill-rule="evenodd" clip-rule="evenodd" d="M49.3262 26.4319C49.6496 26.4319 49.9121 26.6943 49.9121 27.0179V33.5067C49.9121 33.8303 49.6496 34.0926 49.3262 34.0926C49.0023 34.0926 48.7402 33.8303 48.7402 33.5067V27.0179C48.7402 26.6943 49.0023 26.4319 49.3262 26.4319Z" fill="black"/>
<path d="M50.9386 33.7371C50.9386 34.6277 50.2167 35.3497 49.3261 35.3497C48.4355 35.3497 47.7136 34.6277 47.7136 33.7371C47.7136 32.8465 48.4355 32.1245 49.3261 32.1245C50.2167 32.1245 50.9386 32.8465 50.9386 33.7371Z" fill="black"/>
<path d="M28.4978 18.9296L9.56431 26.4739C9.21439 26.6134 9.21939 27.1104 9.57201 27.2428L28.5597 34.3723C29.3111 34.6545 30.1397 34.6528 30.89 34.3678L49.6491 27.2423C49.9999 27.1091 50.0046 26.6148 49.6569 26.4746L30.9516 18.9345C30.1647 18.6173 29.2859 18.6155 28.4978 18.9296Z" fill="black"/>
<path fill-rule="evenodd" clip-rule="evenodd" d="M44.0688 27.6903C44.1426 27.8929 44.0384 28.1172 43.8357 28.1911L30.4741 33.0673C30.2714 33.1413 30.0472 33.037 29.9732 32.8343C29.8993 32.6316 30.0036 32.4074 30.2063 32.3334L43.5678 27.4572C43.7705 27.3833 43.9948 27.4876 44.0688 27.6903Z" fill="white"/>
<path fill-rule="evenodd" clip-rule="evenodd" d="M12.6434 26.786C12.7177 26.5835 12.9421 26.4795 13.1447 26.5538L17.6102 28.1919C17.8127 28.2662 17.9167 28.4906 17.8424 28.6931C17.7681 28.8957 17.5437 28.9996 17.3411 28.9253L12.8756 27.2873C12.6731 27.213 12.5691 26.9886 12.6434 26.786Z" fill="white"/>
<path d="M88.35 37.9C88.45 38.2833 88.5417 38.7667 88.625 39.35C88.725 39.9333 88.775 40.4167 88.775 40.8C87.1083 40.8167 85.55 40.875 84.1 40.975C82.65 41.0917 80.9583 41.2833 79.025 41.55C78.6083 38.7 78.2667 35.4917 78 31.925C77.75 28.3583 77.6333 25.25 77.65 22.6C78.1833 22.4333 78.7167 22.3167 79.25 22.25C79.8 22.1667 80.3583 22.125 80.925 22.125C81.1083 22.125 81.2833 22.1333 81.45 22.15C81.6333 22.15 81.8083 22.1667 81.975 22.2C81.8583 23.15 81.7667 24.275 81.7 25.575C81.6333 26.875 81.6083 28.25 81.625 29.7C81.625 31.6667 81.6667 33.35 81.75 34.75C81.8333 36.15 81.9667 37.4417 82.15 38.625C83.1167 38.3917 84.1417 38.2167 85.225 38.1C86.325 37.9667 87.3667 37.9 88.35 37.9ZM93.2512 30.7C93.5845 30.8 93.9178 30.875 94.2512 30.925C94.6012 30.975 94.9262 31 95.2262 31C95.4095 31 95.5928 30.9917 95.7762 30.975C95.9595 30.9583 96.0845 30.9417 96.1512 30.925C96.2678 30.4917 96.3512 30.0917 96.4012 29.725C96.4678 29.3417 96.5012 29 96.5012 28.7C96.5012 28.2 96.4262 27.8333 96.2762 27.6C96.1262 27.3667 95.8845 27.25 95.5512 27.25C95.0845 27.25 94.6428 27.5667 94.2262 28.2C93.8095 28.8167 93.4845 29.65 93.2512 30.7ZM97.3012 34.425C97.7845 34.5083 98.2762 34.6833 98.7762 34.95C99.2762 35.2167 99.6928 35.5167 100.026 35.85C99.7095 36.7833 99.0095 37.6167 97.9262 38.35C96.8428 39.0667 95.6095 39.425 94.2262 39.425C92.6428 39.425 91.4095 38.9167 90.5262 37.9C89.6428 36.8667 89.2012 35.475 89.2012 33.725C89.2012 31.5083 89.8595 29.5417 91.1762 27.825C92.5095 26.0917 94.0595 25.225 95.8262 25.225C97.0595 25.225 98.0345 25.5667 98.7512 26.25C99.4845 26.9167 99.8512 27.8167 99.8512 28.95C99.8512 29.4833 99.7928 30.0583 99.6762 30.675C99.5762 31.2917 99.4345 31.85 99.2512 32.35C98.8178 32.55 98.2845 32.7 97.6512 32.8C97.0178 32.8833 96.2345 32.925 95.3012 32.925C94.9178 32.925 94.5262 32.9 94.1262 32.85C93.7428 32.8 93.3512 32.725 92.9512 32.625C92.9345 32.8917 92.9178 33.0917 92.9012 33.225C92.9012 33.3583 92.9012 33.4833 92.9012 33.6C92.9012 34.7333 93.0678 35.625 93.4012 36.275C93.7512 36.925 94.2262 37.25 94.8262 37.25C95.2928 37.25 95.7678 36.9583 96.2512 36.375C96.7512 35.7917 97.1012 35.1417 97.3012 34.425ZM112.577 30.225C112.577 31.2917 112.427 32.7417 112.127 34.575C111.843 36.3917 111.485 38.1583 111.052 39.875C110.568 39.875 110.068 39.8417 109.552 39.775C109.035 39.725 108.56 39.6417 108.127 39.525C108.193 39.175 108.235 38.9167 108.252 38.75C108.285 38.5833 108.318 38.4333 108.352 38.3C108.002 38.5 107.61 38.65 107.177 38.75C106.743 38.85 106.285 38.9 105.802 38.9C104.518 38.9 103.485 38.575 102.702 37.925C101.935 37.2583 101.552 36.375 101.552 35.275C101.552 34.125 102.018 33.2667 102.952 32.7C103.902 32.1167 105.31 31.825 107.177 31.825C107.527 31.825 107.835 31.8333 108.102 31.85C108.385 31.85 108.677 31.8583 108.977 31.875C108.977 31.8083 108.977 31.75 108.977 31.7C108.977 31.6333 108.977 31.5667 108.977 31.5C108.977 29.9833 108.852 28.9 108.602 28.25C108.352 27.6 107.952 27.275 107.402 27.275C106.852 27.275 106.385 27.575 106.002 28.175C105.618 28.775 105.418 29.5333 105.402 30.45C104.585 30.4333 103.91 30.275 103.377 29.975C102.843 29.6583 102.46 29.225 102.227 28.675C102.493 27.7083 103.143 26.8917 104.177 26.225C105.21 25.5417 106.402 25.2 107.752 25.2C109.335 25.2 110.535 25.625 111.352 26.475C112.168 27.325 112.577 28.575 112.577 30.225ZM105.302 35.5C105.302 35.9833 105.435 36.3583 105.702 36.625C105.985 36.8917 106.377 37.025 106.877 37.025C107.193 37.025 107.493 36.9833 107.777 36.9C108.06 36.8167 108.343 36.6917 108.627 36.525C108.71 35.925 108.777 35.3833 108.827 34.9C108.877 34.4167 108.91 33.95 108.927 33.5C107.71 33.4833 106.802 33.6417 106.202 33.975C105.602 34.2917 105.302 34.8 105.302 35.5ZM118.695 33.35C118.745 34.35 118.82 35.325 118.92 36.275C119.02 37.2083 119.145 38.125 119.295 39.025C119.012 39.125 118.687 39.1917 118.32 39.225C117.954 39.275 117.537 39.2917 117.07 39.275C116.804 39.2583 116.587 39.2333 116.42 39.2C116.254 39.1833 116.087 39.1417 115.92 39.075C115.487 37.025 115.179 34.7833 114.995 32.35C114.812 29.9 114.795 27.6667 114.945 25.65C115.195 25.55 115.479 25.4833 115.795 25.45C116.112 25.4 116.495 25.375 116.945 25.375C117.362 25.375 117.745 25.4083 118.095 25.475C118.445 25.525 118.762 25.6083 119.045 25.725C118.979 26.075 118.92 26.4583 118.87 26.875C118.82 27.2917 118.779 27.725 118.745 28.175C119.145 27.1083 119.654 26.2667 120.27 25.65C120.887 25.0333 121.52 24.725 122.17 24.725C122.987 24.725 123.62 25.0583 124.07 25.725C124.52 26.375 124.745 27.3083 124.745 28.525C124.745 28.8083 124.745 29.0333 124.745 29.2C124.745 29.35 124.737 29.4917 124.72 29.625C124.32 29.7583 123.829 29.85 123.245 29.9C122.679 29.9333 122.079 29.9333 121.445 29.9C121.462 29.5667 121.47 29.3417 121.47 29.225C121.487 29.0917 121.495 28.975 121.495 28.875C121.495 28.4083 121.437 28.0583 121.32 27.825C121.22 27.5917 121.054 27.475 120.82 27.475C120.404 27.475 119.995 28.0083 119.595 29.075C119.212 30.125 118.912 31.55 118.695 33.35ZM129.824 35.825C129.824 36.3583 129.832 36.9833 129.849 37.7C129.882 38.4 129.916 39.025 129.949 39.575C129.582 39.6917 129.099 39.7833 128.499 39.85C127.916 39.9333 127.366 39.975 126.849 39.975C126.666 38.2417 126.491 35.9583 126.324 33.125C126.174 30.2917 126.099 27.9 126.099 25.95C126.399 25.8 126.799 25.6833 127.299 25.6C127.816 25.5 128.341 25.45 128.874 25.45C129.107 25.45 129.349 25.4667 129.599 25.5C129.849 25.5167 130.116 25.55 130.399 25.6C130.366 25.8833 130.324 26.225 130.274 26.625C130.241 27.025 130.207 27.4833 130.174 28C130.674 27.2 131.232 26.6 131.849 26.2C132.466 25.8 133.141 25.6 133.874 25.6C134.991 25.6 135.816 26.0083 136.349 26.825C136.899 27.625 137.174 28.8417 137.174 30.475C137.174 31.7583 137.066 33.2333 136.849 34.9C136.649 36.55 136.432 37.8333 136.199 38.75C135.699 38.7333 135.141 38.6917 134.524 38.625C133.924 38.5583 133.282 38.4583 132.599 38.325C132.882 36.775 133.099 35.3333 133.249 34C133.399 32.6667 133.474 31.5167 133.474 30.55C133.474 29.8167 133.382 29.2917 133.199 28.975C133.016 28.6583 132.724 28.5 132.324 28.5C131.891 28.5 131.466 28.7417 131.049 29.225C130.632 29.6917 130.274 30.3417 129.974 31.175C129.924 31.9417 129.882 32.7333 129.849 33.55C129.832 34.35 129.824 35.1083 129.824 35.825ZM143.074 20.25C143.474 20.2667 143.841 20.3083 144.174 20.375C144.508 20.4417 144.783 20.5333 144.999 20.65C144.849 21 144.683 21.475 144.499 22.075C144.316 22.675 144.174 23.2417 144.074 23.775C143.608 23.8417 143.116 23.8917 142.599 23.925C142.083 23.9417 141.524 23.9417 140.924 23.925C140.841 23.6583 140.774 23.3917 140.724 23.125C140.691 22.8583 140.674 22.5917 140.674 22.325C140.674 22.025 140.699 21.7333 140.749 21.45C140.799 21.1667 140.866 20.9167 140.949 20.7C141.266 20.55 141.591 20.4417 141.924 20.375C142.274 20.2917 142.658 20.25 143.074 20.25ZM140.224 26.475C140.574 26.275 140.966 26.125 141.399 26.025C141.849 25.9083 142.324 25.85 142.824 25.85C143.058 25.85 143.291 25.8667 143.524 25.9C143.774 25.9167 144.016 25.95 144.249 26C143.899 27.3333 143.616 29.1833 143.399 31.55C143.183 33.9167 143.074 36.3583 143.074 38.875C142.808 38.9917 142.474 39.0833 142.074 39.15C141.691 39.2333 141.291 39.275 140.874 39.275C140.691 39.275 140.524 39.2667 140.374 39.25C140.241 39.2333 140.116 39.2167 139.999 39.2C139.733 36.9167 139.616 34.6667 139.649 32.45C139.699 30.2333 139.891 28.2417 140.224 26.475ZM149.917 35.825C149.917 36.3583 149.925 36.9833 149.942 37.7C149.975 38.4 150.008 39.025 150.042 39.575C149.675 39.6917 149.192 39.7833 148.592 39.85C148.008 39.9333 147.458 39.975 146.942 39.975C146.758 38.2417 146.583 35.9583 146.417 33.125C146.267 30.2917 146.192 27.9 146.192 25.95C146.492 25.8 146.892 25.6833 147.392 25.6C147.908 25.5 148.433 25.45 148.967 25.45C149.2 25.45 149.442 25.4667 149.692 25.5C149.942 25.5167 150.208 25.55 150.492 25.6C150.458 25.8833 150.417 26.225 150.367 26.625C150.333 27.025 150.3 27.4833 150.267 28C150.767 27.2 151.325 26.6 151.942 26.2C152.558 25.8 153.233 25.6 153.967 25.6C155.083 25.6 155.908 26.0083 156.442 26.825C156.992 27.625 157.267 28.8417 157.267 30.475C157.267 31.7583 157.158 33.2333 156.942 34.9C156.742 36.55 156.525 37.8333 156.292 38.75C155.792 38.7333 155.233 38.6917 154.617 38.625C154.017 38.5583 153.375 38.4583 152.692 38.325C152.975 36.775 153.192 35.3333 153.342 34C153.492 32.6667 153.567 31.5167 153.567 30.55C153.567 29.8167 153.475 29.2917 153.292 28.975C153.108 28.6583 152.817 28.5 152.417 28.5C151.983 28.5 151.558 28.7417 151.142 29.225C150.725 29.6917 150.367 30.3417 150.067 31.175C150.017 31.9417 149.975 32.7333 149.942 33.55C149.925 34.35 149.917 35.1083 149.917 35.825ZM163.192 32.175C163.192 33.5083 163.392 34.5667 163.792 35.35C164.192 36.1333 164.709 36.525 165.342 36.525C165.626 36.525 165.884 36.4083 166.117 36.175C166.367 35.9417 166.584 35.5917 166.767 35.125C166.751 33.9583 166.676 32.75 166.542 31.5C166.409 30.2333 166.234 29.1 166.017 28.1C165.901 28.0833 165.784 28.0667 165.667 28.05C165.551 28.0333 165.434 28.025 165.317 28.025C164.601 28.025 164.067 28.3667 163.717 29.05C163.367 29.7333 163.192 30.775 163.192 32.175ZM170.492 34.775C170.492 38.1583 169.951 40.7333 168.867 42.5C167.801 44.2833 166.276 45.175 164.292 45.175C162.942 45.175 161.867 44.8 161.067 44.05C160.267 43.3167 159.817 42.3583 159.717 41.175C160.134 40.8583 160.617 40.5917 161.167 40.375C161.717 40.1583 162.276 40.0083 162.842 39.925C162.992 40.9917 163.201 41.7583 163.467 42.225C163.751 42.7083 164.126 42.95 164.592 42.95C165.176 42.95 165.642 42.5083 165.992 41.625C166.342 40.7417 166.576 39.425 166.692 37.675C166.376 38.0917 166.017 38.4 165.617 38.6C165.217 38.8 164.776 38.9 164.292 38.9C162.842 38.9 161.676 38.35 160.792 37.25C159.926 36.1333 159.492 34.6583 159.492 32.825C159.492 30.5417 160.034 28.7917 161.117 27.575C162.217 26.3417 163.792 25.725 165.842 25.725C166.392 25.725 167.009 25.7917 167.692 25.925C168.376 26.0417 169.009 26.2 169.592 26.4C169.842 27.2833 170.051 28.55 170.217 30.2C170.401 31.8333 170.492 33.3583 170.492 34.775ZM188.078 31.025C188.428 31.5417 188.687 32.0917 188.853 32.675C189.037 33.2583 189.128 33.8917 189.128 34.575C189.128 36.1417 188.578 37.4417 187.478 38.475C186.395 39.4917 185.045 40 183.428 40C181.578 40 180.07 39.3833 178.903 38.15C177.737 36.9167 177.153 35.4083 177.153 33.625C177.553 33.425 178.037 33.25 178.603 33.1C179.187 32.95 179.695 32.8667 180.128 32.85C180.128 34.3333 180.387 35.5083 180.903 36.375C181.437 37.2417 182.17 37.675 183.103 37.675C183.803 37.675 184.345 37.4667 184.728 37.05C185.128 36.6333 185.328 36.0667 185.328 35.35C185.328 34.7 185.145 34.1 184.778 33.55C184.428 32.9833 183.645 32.2417 182.428 31.325C181.612 30.7083 181.012 30.2167 180.628 29.85C180.245 29.4667 179.92 29.0917 179.653 28.725C179.287 28.1917 179.012 27.625 178.828 27.025C178.645 26.425 178.553 25.7833 178.553 25.1C178.553 23.5167 179.07 22.2417 180.103 21.275C181.137 20.3083 182.512 19.825 184.228 19.825C185.762 19.825 186.978 20.225 187.878 21.025C188.795 21.8083 189.412 23.025 189.728 24.675C189.362 24.925 188.928 25.1167 188.428 25.25C187.945 25.3667 187.337 25.45 186.603 25.5C186.437 24.35 186.162 23.525 185.778 23.025C185.412 22.525 184.87 22.275 184.153 22.275C183.603 22.275 183.17 22.4583 182.853 22.825C182.553 23.175 182.403 23.6667 182.403 24.3C182.403 25 182.587 25.6417 182.953 26.225C183.32 26.8083 184.12 27.5583 185.353 28.475C186.17 29.0917 186.762 29.5833 187.128 29.95C187.495 30.3 187.812 30.6583 188.078 31.025ZM194.938 36.275C195.088 36.3917 195.246 36.4833 195.413 36.55C195.596 36.6 195.788 36.625 195.988 36.625C196.721 36.625 197.346 36.0083 197.863 34.775C198.38 33.525 198.638 31.975 198.638 30.125C198.638 29.325 198.521 28.7167 198.288 28.3C198.055 27.8667 197.713 27.65 197.263 27.65C196.763 27.65 196.321 27.8833 195.938 28.35C195.571 28.8 195.271 29.475 195.038 30.375C194.988 30.9917 194.955 31.6667 194.938 32.4C194.921 33.1333 194.913 33.9583 194.913 34.875C194.913 35.2583 194.913 35.55 194.913 35.75C194.913 35.95 194.921 36.125 194.938 36.275ZM195.013 38.7C195.046 39.25 195.088 39.825 195.138 40.425C195.188 41.025 195.33 42.3083 195.563 44.275C195.18 44.3917 194.688 44.4833 194.088 44.55C193.505 44.6333 192.955 44.675 192.438 44.675C192.171 42.675 191.946 40.3333 191.763 37.65C191.596 34.95 191.513 32.475 191.513 30.225C191.513 29.2417 191.53 28.3583 191.563 27.575C191.596 26.7917 191.655 26.0167 191.738 25.25C192.038 25.0833 192.438 24.9583 192.938 24.875C193.455 24.775 193.98 24.725 194.513 24.725C194.73 24.725 194.921 24.7417 195.088 24.775C195.271 24.7917 195.488 24.8333 195.738 24.9C195.655 25.1833 195.58 25.5 195.513 25.85C195.446 26.2 195.388 26.6 195.338 27.05C195.805 26.3167 196.338 25.7667 196.938 25.4C197.538 25.0333 198.188 24.85 198.888 24.85C199.971 24.85 200.821 25.2917 201.438 26.175C202.071 27.0417 202.388 28.2333 202.388 29.75C202.388 32.3833 201.78 34.5417 200.563 36.225C199.363 37.9083 197.855 38.75 196.038 38.75C195.905 38.75 195.763 38.75 195.613 38.75C195.48 38.7333 195.28 38.7167 195.013 38.7ZM214.725 30.225C214.725 31.2917 214.575 32.7417 214.275 34.575C213.992 36.3917 213.634 38.1583 213.2 39.875C212.717 39.875 212.217 39.8417 211.7 39.775C211.184 39.725 210.709 39.6417 210.275 39.525C210.342 39.175 210.384 38.9167 210.4 38.75C210.434 38.5833 210.467 38.4333 210.5 38.3C210.15 38.5 209.759 38.65 209.325 38.75C208.892 38.85 208.434 38.9 207.95 38.9C206.667 38.9 205.634 38.575 204.85 37.925C204.084 37.2583 203.7 36.375 203.7 35.275C203.7 34.125 204.167 33.2667 205.1 32.7C206.05 32.1167 207.459 31.825 209.325 31.825C209.675 31.825 209.984 31.8333 210.25 31.85C210.534 31.85 210.825 31.8583 211.125 31.875C211.125 31.8083 211.125 31.75 211.125 31.7C211.125 31.6333 211.125 31.5667 211.125 31.5C211.125 29.9833 211 28.9 210.75 28.25C210.5 27.6 210.1 27.275 209.55 27.275C209 27.275 208.534 27.575 208.15 28.175C207.767 28.775 207.567 29.5333 207.55 30.45C206.734 30.4333 206.059 30.275 205.525 29.975C204.992 29.6583 204.609 29.225 204.375 28.675C204.642 27.7083 205.292 26.8917 206.325 26.225C207.359 25.5417 208.55 25.2 209.9 25.2C211.484 25.2 212.684 25.625 213.5 26.475C214.317 27.325 214.725 28.575 214.725 30.225ZM207.45 35.5C207.45 35.9833 207.584 36.3583 207.85 36.625C208.134 36.8917 208.525 37.025 209.025 37.025C209.342 37.025 209.642 36.9833 209.925 36.9C210.209 36.8167 210.492 36.6917 210.775 36.525C210.859 35.925 210.925 35.3833 210.975 34.9C211.025 34.4167 211.059 33.95 211.075 33.5C209.859 33.4833 208.95 33.6417 208.35 33.975C207.75 34.2917 207.45 34.8 207.45 35.5ZM227.344 29.75C226.927 29.95 226.444 30.1 225.894 30.2C225.36 30.3 224.735 30.35 224.019 30.35C224.019 29.3833 223.902 28.6583 223.669 28.175C223.452 27.675 223.127 27.425 222.694 27.425C222.027 27.425 221.444 28.075 220.944 29.375C220.46 30.675 220.219 32.1583 220.219 33.825C220.219 34.9583 220.385 35.85 220.719 36.5C221.052 37.1333 221.527 37.45 222.144 37.45C222.644 37.45 223.144 37.225 223.644 36.775C224.16 36.3083 224.66 35.6333 225.144 34.75C225.527 34.85 225.894 35.025 226.244 35.275C226.61 35.5083 226.91 35.7833 227.144 36.1C226.877 37.0333 226.21 37.8583 225.144 38.575C224.094 39.275 222.869 39.625 221.469 39.625C219.885 39.625 218.66 39.125 217.794 38.125C216.927 37.1083 216.494 35.725 216.494 33.975C216.494 31.6417 217.094 29.6417 218.294 27.975C219.51 26.2917 221.044 25.45 222.894 25.45C224.294 25.45 225.385 25.8333 226.169 26.6C226.952 27.3667 227.344 28.4167 227.344 29.75ZM232.68 30.7C233.013 30.8 233.347 30.875 233.68 30.925C234.03 30.975 234.355 31 234.655 31C234.838 31 235.022 30.9917 235.205 30.975C235.388 30.9583 235.513 30.9417 235.58 30.925C235.697 30.4917 235.78 30.0917 235.83 29.725C235.897 29.3417 235.93 29 235.93 28.7C235.93 28.2 235.855 27.8333 235.705 27.6C235.555 27.3667 235.313 27.25 234.98 27.25C234.513 27.25 234.072 27.5667 233.655 28.2C233.238 28.8167 232.913 29.65 232.68 30.7ZM236.73 34.425C237.213 34.5083 237.705 34.6833 238.205 34.95C238.705 35.2167 239.122 35.5167 239.455 35.85C239.138 36.7833 238.438 37.6167 237.355 38.35C236.272 39.0667 235.038 39.425 233.655 39.425C232.072 39.425 230.838 38.9167 229.955 37.9C229.072 36.8667 228.63 35.475 228.63 33.725C228.63 31.5083 229.288 29.5417 230.605 27.825C231.938 26.0917 233.488 25.225 235.255 25.225C236.488 25.225 237.463 25.5667 238.18 26.25C238.913 26.9167 239.28 27.8167 239.28 28.95C239.28 29.4833 239.222 30.0583 239.105 30.675C239.005 31.2917 238.863 31.85 238.68 32.35C238.247 32.55 237.713 32.7 237.08 32.8C236.447 32.8833 235.663 32.925 234.73 32.925C234.347 32.925 233.955 32.9 233.555 32.85C233.172 32.8 232.78 32.725 232.38 32.625C232.363 32.8917 232.347 33.0917 232.33 33.225C232.33 33.3583 232.33 33.4833 232.33 33.6C232.33 34.7333 232.497 35.625 232.83 36.275C233.18 36.925 233.655 37.25 234.255 37.25C234.722 37.25 235.197 36.9583 235.68 36.375C236.18 35.7917 236.53 35.1417 236.73 34.425Z" fill="black"/>
</svg>
